<?xml version="1.0" encoding="utf-8"?>
<!-- Generator: Adobe Illustrator 24.3.0, SVG Export Plug-In . SVG Version: 6.00 Build 0)  -->
<svg version="1.1" id="Layer_1" xmlns="http://www.w3.org/2000/svg" xmlns:xlink="http://www.w3.org/1999/xlink" x="0px" y="0px"
	 viewBox="0 0 432.21 127.59" style="enable-background:new 0 0 432.21 127.59;" xml:space="preserve">
<style type="text/css">
	.st0{fill:#3BA8CE;}
</style>
<path class="st0" d="M176.03,5.32c0-2.85,1.51-4.36,4.36-4.36h15.79c17.86,0,29.29,10.39,29.29,28.24
	c0,17.86-11.43,28.49-29.29,28.49h-15.79c-2.86,0-4.36-1.5-4.36-4.37V5.32z M195.63,45.78c9.61,0,15.47-5.71,15.47-16.58
	c0-10.79-6.1-16.35-15.47-16.35h-5.71v32.93H195.63z"/>
<path class="st0" d="M243.39,4.53c0.8-2.47,2.38-3.57,4.92-3.57h7.14c2.54,0,4.12,1.1,4.92,3.57l16.42,48.17
	c1.03,3.01-0.39,4.99-3.57,4.99h-5.24c-2.54,0-4.12-1.19-4.92-3.65l-2.38-8.26h-17.69l-2.38,8.26c-0.71,2.46-2.3,3.65-4.84,3.65
	h-5.24c-3.17,0-4.6-1.98-3.57-4.99L243.39,4.53z M257.43,34.68l-3.18-11.03c-1.03-3.57-2.3-9.75-2.3-9.75h-0.16
	c0,0-1.27,6.18-2.3,9.75l-3.25,11.03H257.43z"/>
<path class="st0" d="M283.31,5.32c0-2.85,1.51-4.36,4.37-4.36h6.19c2.46,0,4.05,0.86,5.24,2.93l13.96,23.57
	c2.22,3.72,4.76,9.68,4.76,9.68h0.16c0,0-0.63-6.11-0.63-9.68V5.32c0-2.85,1.5-4.36,4.36-4.36h5.16c2.85,0,4.36,1.5,4.36,4.36v48
	c0,2.86-1.51,4.37-4.36,4.37h-6.19c-2.38,0-3.97-0.87-5.16-2.93l-14.04-23.49c-2.23-3.73-4.77-9.68-4.77-9.68h-0.16
	c0,0,0.63,6.11,0.63,9.68v22.05c0,2.86-1.51,4.37-4.37,4.37h-5.15c-2.86,0-4.37-1.5-4.37-4.37V5.32z"/>
<path class="st0" d="M340.38,46.98l2.46-3.57c1.59-2.3,3.42-2.46,6.03-1.03c1.82,0.95,5.4,3.5,10.32,3.5c4.12,0,6.04-1.75,6.04-3.98
	c0-8.02-25.08-6.73-25.08-24.51C340.14,6.9,348.87,0,360.38,0c6.59,0,12.61,2.31,15.32,4.21c2.3,1.67,2.53,3.65,1.35,5.95l-1.9,3.73
	c-1.59,3.09-3.73,2.61-5.96,1.5c-2.62-1.26-5.24-2.61-8.96-2.61c-4.36,0-6.19,1.74-6.19,3.96c0,8.26,25.07,6.28,25.07,24.21
	c0,9.52-7.14,17.69-19.92,17.69c-7.94,0-15-3.24-18.01-5.64C339.51,51.66,338.32,49.91,340.38,46.98z"/>
<path class="st0" d="M387.21,5.32c0-2.85,1.51-4.36,4.36-4.36h5.16c2.85,0,4.36,1.5,4.36,4.36v17.54h3.75l12.04-18.8
	c1.19-2.15,2.77-3.09,5.16-3.09h5.4c3.49,0,4.76,2.22,3.1,5.23l-14.35,21.9v0.16l15.3,24.2c1.67,3.02,0.4,5.24-3.09,5.24h-6.11
	c-2.38,0-3.97-0.95-5.16-3.09l-12.28-19.92h-3.75v18.64c0,2.86-1.51,4.37-4.36,4.37h-5.16c-2.86,0-4.36-1.5-4.36-4.37V5.32z"/>
<path class="st0" d="M244.18,75.22c0-2.86,1.51-4.36,4.36-4.36h28.24c2.85,0,4.36,1.5,4.36,4.36v3.18c0,2.85-1.51,4.37-4.36,4.37
	h-18.72v10.3h14.35c2.85,0,4.37,1.52,4.37,4.37v3.18c0,2.85-1.51,4.36-4.37,4.36h-14.35v10.71h19.83c2.85,0,4.36,1.51,4.36,4.37
	v3.17c0,2.86-1.51,4.36-4.36,4.36h-29.35c-2.86,0-4.36-1.5-4.36-4.36V75.22z"/>
<path class="st0" d="M304.34,82.77h-12.85c-2.86,0-4.36-1.52-4.36-4.37v-3.18c0-2.86,1.51-4.36,4.36-4.36h39.6
	c2.86,0,4.36,1.5,4.36,4.36v3.18c0,2.85-1.51,4.37-4.36,4.37h-12.86v40.46c0,2.86-1.51,4.36-4.37,4.36h-5.16
	c-2.85,0-4.36-1.5-4.36-4.36V82.77z"/>
<path class="st0" d="M387.58,75.22c0-2.86,1.51-4.36,4.36-4.36h5.16c2.85,0,4.36,1.5,4.36,4.36v40.47h18.81
	c2.85,0,4.36,1.51,4.36,4.37v3.17c0,2.86-1.51,4.36-4.36,4.36h-28.33c-2.86,0-4.36-1.5-4.36-4.36V75.22z"/>
<path class="st0" d="M230,70.86h-6.19c-2.46,0-4.05,0.86-5.24,2.93l-13.38,22.57l-13.38-22.57c-1.19-2.07-2.77-2.93-5.24-2.93h-6.19
	c-2.86,0-4.36,1.5-4.36,4.36v48c0,2.87,1.51,4.37,4.36,4.37h5.16c2.86,0,4.36-1.5,4.36-4.37v-22.05c0-3.57-0.63-9.68-0.63-9.68h0.16
	l10.96,20.04c0.92,1.29,2.26,1.92,4.11,1.95h0.01c0.05,0,0.1,0,0.15,0l0,0h1.08v0c0.01,0,0.03,0,0.04,0h0.12v0
	c1.86-0.03,3.2-0.67,4.13-1.98l10.94-20.01h0.16c0,0-0.63,6.11-0.63,9.68v22.05c0,2.87,1.51,4.37,4.36,4.37H230
	c2.86,0,4.36-1.5,4.36-4.37v-48C234.36,72.36,232.86,70.86,230,70.86z"/>
<path class="st0" d="M347.66,74.43c0.8-2.47,2.38-3.57,4.92-3.57h7.14c2.54,0,4.12,1.1,4.92,3.57l16.42,48.17
	c1.03,3.01-0.39,4.99-3.57,4.99h-5.24c-2.54,0-4.12-1.19-4.92-3.65l-2.38-8.26h-17.69l-2.38,8.26c-0.71,2.46-2.3,3.65-4.84,3.65
	h-5.24c-3.17,0-4.6-1.98-3.57-4.99L347.66,74.43z M361.7,104.58l-3.18-11.03c-1.03-3.57-2.3-9.75-2.3-9.75h-0.16
	c0,0-1.27,6.18-2.3,9.75l-3.25,11.03H361.7z"/>
<path class="st0" d="M125.19,104.19H25.64v-2.96l49.77-23.65l49.78,23.65V104.19z M75.42,50.97L25.64,27.32v-2.97h99.55v2.97
	L75.42,50.97z M150.83,0.96H0v35.07c0.3,4.14,1.74,6.31,6.61,8.86l40.81,19.38L7.74,83.12C1.95,85.93,0.33,88.1,0,92.55v35.04
	h150.83V92.55c-0.33-4.45-1.95-6.62-7.74-9.42l-39.68-18.85l40.81-19.38c4.88-2.54,6.31-4.71,6.61-8.86V0.96z"/>
</svg>
